<svg xmlns="http://www.w3.org/2000/svg" viewBox="0 0 560 200" role="img" aria-label="Il messaggio viaggia cifrato fino al servizio, dove il modello lo legge in chiaro e una copia può finire in cronologia, nei registri o nei dati di addestramento."><rect width="100%" height="100%" fill="#fff"/><style>
text{font-family:system-ui,-apple-system,"Segoe UI",sans-serif}.en{display:none}
.box{fill:#fff;stroke:#aeb6c6;stroke-width:1.5}.box-soft{fill:#eef0f5}.box-accent{fill:#edf2ff;stroke:#3b5bdb;stroke-width:1.5}
.box-mod{fill:#d8f1e9;stroke:#0ca678;stroke-width:1.5}.fill-accent{fill:#3b5bdb}.fill-mod{fill:#0ca678}.fill-muted{fill:#6f7689}.fill-ink{fill:#464d5e}.fill-soft{fill:#eef0f5}
.ln,.ln-muted,.ln-accent,.ln-mod{fill:none}.ln{stroke:#464d5e;stroke-width:1.5}.ln-muted{stroke:#6f7689;stroke-width:1.5}.ln-accent{stroke:#3b5bdb;stroke-width:2}.ln-mod{stroke:#0ca678;stroke-width:2}
.dash{stroke-dasharray:5 4}.t{font-size:15px;fill:#161a23}.t-sm{font-size:13px;fill:#464d5e}.t-xs{font-size:11.5px;fill:#6f7689}
.t-mono{font-family:ui-monospace,Consolas,monospace}.t-b{font-weight:700}.t-accent{fill:#3b5bdb}.t-mod{fill:#0ca678}.t-on{fill:#fff}.mid{text-anchor:middle}.end{text-anchor:end}
</style><defs><marker id="ah-data-journey" viewBox="0 0 10 10" refX="9" refY="5" markerWidth="7" markerHeight="7" orient="auto-start-reverse"><path d="M0,0 L10,5 L0,10 z" class="fill-ink"/></marker></defs><rect class="box-soft" x="196" y="16" width="348" height="168" rx="6"/><rect class="box" x="20" y="72" width="110" height="50" rx="6"/><text class="t-sm mid it" x="75" y="102">dispositivo</text><text class="t-sm mid en" x="75" y="102">your device</text><line class="ln" x1="134" y1="97" x2="212" y2="97" marker-end="url(#ah-data-journey)"/><text class="t-xs mid it" x="165" y="86">cifrato</text><text class="t-xs mid en" x="165" y="86">encrypted</text><text class="t-xs mid" x="165" y="116">TLS</text><text class="t-xs it" x="208" y="36">servizio nel cloud</text><text class="t-xs en" x="208" y="36">cloud service</text><rect class="box-accent" x="216" y="72" width="110" height="50" rx="6"/><text class="t mid it" x="271" y="102">modello</text><text class="t mid en" x="271" y="102">model</text><text class="t-xs mid it" x="271" y="142">legge in chiaro</text><text class="t-xs mid en" x="271" y="142">reads plain text</text><line class="ln" x1="330" y1="97" x2="380" y2="58" marker-end="url(#ah-data-journey)"/><line class="ln" x1="330" y1="97" x2="380" y2="102" marker-end="url(#ah-data-journey)"/><line class="ln-muted dash" x1="330" y1="97" x2="380" y2="146" marker-end="url(#ah-data-journey)"/><rect class="box" x="384" y="42" width="144" height="32" rx="6"/><text class="t-sm mid it" x="456" y="63">cronologia</text><text class="t-sm mid en" x="456" y="63">history</text><rect class="box" x="384" y="86" width="144" height="32" rx="6"/><text class="t-sm mid it" x="456" y="107">registri tecnici</text><text class="t-sm mid en" x="456" y="107">technical logs</text><rect class="box dash" x="384" y="130" width="144" height="32" rx="6"/><text class="t-sm mid it" x="456" y="151">addestramento?</text><text class="t-sm mid en" x="456" y="151">training?</text></svg>
