<svg xmlns="http://www.w3.org/2000/svg" viewBox="0 0 560 190" role="img" aria-label="Pochi esempi mirati ritoccano i pesi di un modello già addestrato."><rect width="100%" height="100%" fill="#fff"/><style>
text{font-family:system-ui,-apple-system,"Segoe UI",sans-serif}.en{display:none}
.box{fill:#fff;stroke:#aeb6c6;stroke-width:1.5}.box-soft{fill:#eef0f5}.box-accent{fill:#edf2ff;stroke:#3b5bdb;stroke-width:1.5}
.box-mod{fill:#f8dee7;stroke:#d6336c;stroke-width:1.5}.fill-accent{fill:#3b5bdb}.fill-mod{fill:#d6336c}.fill-muted{fill:#6f7689}.fill-ink{fill:#464d5e}.fill-soft{fill:#eef0f5}
.ln,.ln-muted,.ln-accent,.ln-mod{fill:none}.ln{stroke:#464d5e;stroke-width:1.5}.ln-muted{stroke:#6f7689;stroke-width:1.5}.ln-accent{stroke:#3b5bdb;stroke-width:2}.ln-mod{stroke:#d6336c;stroke-width:2}
.dash{stroke-dasharray:5 4}.t{font-size:15px;fill:#161a23}.t-sm{font-size:13px;fill:#464d5e}.t-xs{font-size:11.5px;fill:#6f7689}
.t-mono{font-family:ui-monospace,Consolas,monospace}.t-b{font-weight:700}.t-accent{fill:#3b5bdb}.t-mod{fill:#d6336c}.t-on{fill:#fff}.mid{text-anchor:middle}.end{text-anchor:end}
</style><defs><marker id="ah-fine-tuning" viewBox="0 0 10 10" refX="9" refY="5" markerWidth="7" markerHeight="7" orient="auto-start-reverse"><path d="M0,0 L10,5 L0,10 z" class="fill-ink"/></marker><marker id="ah2-fine-tuning" viewBox="0 0 10 10" refX="9" refY="5" markerWidth="7" markerHeight="7" orient="auto-start-reverse"><path d="M0,0 L10,5 L0,10 z" class="fill-accent"/></marker></defs><text class="t-sm mid it" x="95" y="38">Modello pre-addestrato</text><text class="t-sm mid en" x="95" y="38">Pre-trained model</text><rect class="box-mod" x="20" y="50" width="150" height="110" rx="8"/><circle class="fill-muted" cx="50" cy="80" r="7"/><circle class="fill-muted" cx="80" cy="80" r="7"/><circle class="fill-muted" cx="110" cy="80" r="7"/><circle class="fill-muted" cx="140" cy="80" r="7"/><circle class="fill-muted" cx="50" cy="105" r="7"/><circle class="fill-muted" cx="80" cy="105" r="7"/><circle class="fill-muted" cx="110" cy="105" r="7"/><circle class="fill-muted" cx="140" cy="105" r="7"/><circle class="fill-muted" cx="50" cy="130" r="7"/><circle class="fill-muted" cx="80" cy="130" r="7"/><circle class="fill-muted" cx="110" cy="130" r="7"/><circle class="fill-muted" cx="140" cy="130" r="7"/><line class="ln" x1="174" y1="105" x2="196" y2="105" marker-end="url(#ah-fine-tuning)"/><text class="t-sm mid it" x="275" y="38">Pochi esempi mirati</text><text class="t-sm mid en" x="275" y="38">A few targeted examples</text><rect class="box-soft" x="200" y="56" width="150" height="28" rx="5"/><text class="t-xs mid it" x="275" y="74">domanda → risposta</text><text class="t-xs mid en" x="275" y="74">question → answer</text><rect class="box-soft" x="200" y="90" width="150" height="28" rx="5"/><text class="t-xs mid it" x="275" y="108">domanda → risposta</text><text class="t-xs mid en" x="275" y="108">question → answer</text><rect class="box-soft" x="200" y="124" width="150" height="28" rx="5"/><text class="t-xs mid it" x="275" y="142">domanda → risposta</text><text class="t-xs mid en" x="275" y="142">question → answer</text><text class="t-xs mid it" x="275" y="176">allenamento breve</text><text class="t-xs mid en" x="275" y="176">short training run</text><line class="ln" x1="354" y1="105" x2="386" y2="105" marker-end="url(#ah-fine-tuning)"/><text class="t-sm mid it" x="465" y="38">Modello adattato</text><text class="t-sm mid en" x="465" y="38">Adapted model</text><rect class="box-mod" x="390" y="50" width="150" height="110" rx="8"/><circle class="fill-accent" cx="422" cy="78" r="7"/><circle class="fill-accent" cx="448" cy="81" r="7"/><circle class="fill-accent" cx="481" cy="82" r="7"/><circle class="fill-accent" cx="509" cy="78" r="7"/><circle class="fill-accent" cx="418" cy="106" r="7"/><circle class="fill-accent" cx="451" cy="107" r="7"/><circle class="fill-accent" cx="479" cy="103" r="7"/><circle class="fill-accent" cx="512" cy="103" r="7"/><circle class="fill-accent" cx="421" cy="132" r="7"/><circle class="fill-accent" cx="449" cy="128" r="7"/><circle class="fill-accent" cx="482" cy="128" r="7"/><circle class="fill-accent" cx="508" cy="131" r="7"/><text class="t-xs mid it" x="465" y="176">tutti i pesi, ritoccati</text><text class="t-xs mid en" x="465" y="176">all weights, nudged</text></svg>
