<svg viewBox="0 0 560 215" role="img" aria-label="Con meno bit ogni peso viene arrotondato al livello più vicino di una scala più grossolana, e la memoria scende.">
<defs>
<marker id="ah-quantization" viewBox="0 0 10 10" refX="9" refY="5" markerWidth="7" markerHeight="7" orient="auto-start-reverse">
<path d="M0,0 L10,5 L0,10 z" class="fill-ink"/>
</marker>
<marker id="ah2-quantization" viewBox="0 0 10 10" refX="9" refY="5" markerWidth="7" markerHeight="7" orient="auto-start-reverse">
<path d="M0,0 L10,5 L0,10 z" class="fill-accent"/>
</marker>
</defs>
<text class="t t-b" x="20" y="70">16 bit</text>
<text class="t t-b" x="20" y="160">4 bit</text>
<line class="ln" x1="90" y1="65" x2="400" y2="65"/>
<path class="ln-muted" d="M90,59 L90,71 M95,59 L95,71 M100,59 L100,71 M105,59 L105,71 M110,59 L110,71 M115,59 L115,71 M120,59 L120,71 M125,59 L125,71 M130,59 L130,71 M135,59 L135,71 M140,59 L140,71 M145,59 L145,71 M150,59 L150,71 M155,59 L155,71 M160,59 L160,71 M165,59 L165,71 M170,59 L170,71 M175,59 L175,71 M180,59 L180,71 M185,59 L185,71 M190,59 L190,71 M195,59 L195,71 M200,59 L200,71 M205,59 L205,71 M210,59 L210,71 M215,59 L215,71 M220,59 L220,71 M225,59 L225,71 M230,59 L230,71 M235,59 L235,71 M240,59 L240,71 M245,59 L245,71 M250,59 L250,71 M255,59 L255,71 M260,59 L260,71 M265,59 L265,71 M270,59 L270,71 M275,59 L275,71 M280,59 L280,71 M285,59 L285,71 M290,59 L290,71 M295,59 L295,71 M300,59 L300,71 M305,59 L305,71 M310,59 L310,71 M315,59 L315,71 M320,59 L320,71 M325,59 L325,71 M330,59 L330,71 M335,59 L335,71 M340,59 L340,71 M345,59 L345,71 M350,59 L350,71 M355,59 L355,71 M360,59 L360,71 M365,59 L365,71 M370,59 L370,71 M375,59 L375,71 M380,59 L380,71 M385,59 L385,71 M390,59 L390,71 M395,59 L395,71 M400,59 L400,71"/>
<line class="ln" x1="90" y1="155" x2="400" y2="155"/>
<path class="ln" d="M90.0,147 L90.0,163 M110.7,147 L110.7,163 M131.3,147 L131.3,163 M152.0,147 L152.0,163 M172.7,147 L172.7,163 M193.3,147 L193.3,163 M214.0,147 L214.0,163 M234.7,147 L234.7,163 M255.3,147 L255.3,163 M276.0,147 L276.0,163 M296.7,147 L296.7,163 M317.3,147 L317.3,163 M338.0,147 L338.0,163 M358.7,147 L358.7,163 M379.3,147 L379.3,163 M400.0,147 L400.0,163"/>
<circle class="fill-ink" cx="263" cy="65" r="6"/>
<circle class="fill-accent" cx="255.3" cy="155" r="6"/>
<line class="ln-accent" x1="262" y1="75" x2="255.8" y2="145" marker-end="url(#ah2-quantization)"/>
<text class="t-sm it" x="274" y="114">arrotonda</text>
<text class="t-sm en" x="274" y="114">rounds</text>
<text class="t-sm it" x="430" y="40">memoria pesi</text>
<text class="t-sm en" x="430" y="40">weight memory</text>
<rect class="fill-muted" x="430" y="55" width="110" height="20" rx="3"/>
<rect class="fill-accent" x="430" y="145" width="28" height="20" rx="3"/>
<text class="t-sm" x="466" y="160">≈ 1/4</text>
<text class="t-xs it" x="90" y="200">stessi pesi, meno livelli possibili</text>
<text class="t-xs en" x="90" y="200">same weights, fewer possible levels</text>
</svg>
