<svg viewBox="0 0 560 200" role="img" aria-label="La ricerca veloce sceglie i candidati, poi il reranker legge domanda e pezzo insieme e li rimette in ordine.">
<defs>
<marker id="ah-reranking" viewBox="0 0 10 10" refX="9" refY="5" markerWidth="7" markerHeight="7" orient="auto-start-reverse">
<path d="M0,0 L10,5 L0,10 z" class="fill-ink"/>
</marker>
</defs>
<rect class="box-soft" x="16" y="40" width="100" height="122" rx="6"/>
<circle class="fill-muted" cx="36" cy="56" r="4"/>
<circle class="fill-muted" cx="36" cy="74" r="4"/>
<circle class="fill-muted" cx="36" cy="92" r="4"/>
<circle class="fill-muted" cx="36" cy="110" r="4"/>
<circle class="fill-muted" cx="36" cy="128" r="4"/>
<circle class="fill-muted" cx="36" cy="146" r="4"/>
<circle class="fill-muted" cx="58" cy="56" r="4"/>
<circle class="fill-muted" cx="58" cy="74" r="4"/>
<circle class="fill-muted" cx="58" cy="92" r="4"/>
<circle class="fill-muted" cx="58" cy="110" r="4"/>
<circle class="fill-muted" cx="58" cy="128" r="4"/>
<circle class="fill-muted" cx="58" cy="146" r="4"/>
<circle class="fill-muted" cx="80" cy="56" r="4"/>
<circle class="fill-muted" cx="80" cy="74" r="4"/>
<circle class="fill-muted" cx="80" cy="92" r="4"/>
<circle class="fill-muted" cx="80" cy="110" r="4"/>
<circle class="fill-muted" cx="80" cy="128" r="4"/>
<circle class="fill-muted" cx="80" cy="146" r="4"/>
<circle class="fill-muted" cx="102" cy="56" r="4"/>
<circle class="fill-muted" cx="102" cy="74" r="4"/>
<circle class="fill-muted" cx="102" cy="92" r="4"/>
<circle class="fill-muted" cx="102" cy="110" r="4"/>
<circle class="fill-muted" cx="102" cy="128" r="4"/>
<circle class="fill-muted" cx="102" cy="146" r="4"/>
<text class="t-sm mid it" x="66" y="182">Archivio</text>
<text class="t-sm mid en" x="66" y="182">Archive</text>
<line class="ln" x1="116" y1="101" x2="174" y2="101" marker-end="url(#ah-reranking)"/>
<text class="t-xs mid it" x="145" y="92">veloce</text>
<text class="t-xs mid en" x="145" y="92">fast</text>
<rect class="box-soft" x="176" y="40" width="84" height="122" rx="6"/>
<circle class="fill-mod" cx="196" cy="62" r="4"/>
<circle class="fill-mod" cx="196" cy="88" r="4"/>
<circle class="fill-mod" cx="196" cy="114" r="4"/>
<circle class="fill-mod" cx="196" cy="140" r="4"/>
<circle class="fill-mod" cx="218" cy="62" r="4"/>
<circle class="fill-mod" cx="218" cy="88" r="4"/>
<circle class="fill-mod" cx="218" cy="114" r="4"/>
<circle class="fill-mod" cx="218" cy="140" r="4"/>
<circle class="fill-mod" cx="240" cy="62" r="4"/>
<circle class="fill-mod" cx="240" cy="88" r="4"/>
<circle class="fill-mod" cx="240" cy="114" r="4"/>
<circle class="fill-mod" cx="240" cy="140" r="4"/>
<text class="t-sm mid it" x="218" y="182">50 candidati</text>
<text class="t-sm mid en" x="218" y="182">50 candidates</text>
<line class="ln" x1="260" y1="101" x2="286" y2="101" marker-end="url(#ah-reranking)"/>
<rect class="box-mod" x="288" y="70" width="120" height="62" rx="6"/>
<text class="t t-b mid" x="348" y="96">Reranker</text>
<text class="t-xs mid it" x="348" y="116">domanda + pezzo</text>
<text class="t-xs mid en" x="348" y="116">query + chunk</text>
<text class="t-sm mid it" x="348" y="182">lento, preciso</text>
<text class="t-sm mid en" x="348" y="182">slow, precise</text>
<line class="ln" x1="408" y1="101" x2="440" y2="101" marker-end="url(#ah-reranking)"/>
<rect class="box-accent" x="444" y="50" width="100" height="28" rx="6"/>
<text class="t t-mono mid" x="494" y="69">1</text>
<rect class="box" x="444" y="86" width="100" height="28" rx="6"/>
<text class="t t-mono mid" x="494" y="105">2</text>
<rect class="box" x="444" y="122" width="100" height="28" rx="6"/>
<text class="t t-mono mid" x="494" y="141">3</text>
<text class="t-sm mid" x="494" y="182">Top 3</text>
</svg>
